<svg width="120" height="37" viewBox="0 0 120 37" fill="none" xmlns="http://www.w3.org/2000/svg">
<path d="M16.8644 21.9368C16.6808 22.026 16.4909 22.1089 16.2945 22.1853C14.6978 22.8049 12.8478 22.9105 11.1504 22.479C9.45294 22.0475 8.04666 21.114 7.24007 19.8835L5.78614 17.659L6.76204 17.2794L8.21597 19.5039C8.54973 20.0152 9.01079 20.4707 9.57281 20.8445C10.1348 21.2183 10.7868 21.503 11.4914 21.6823C12.1961 21.8616 12.9396 21.932 13.6796 21.8895C14.4195 21.847 15.1413 21.6925 15.8038 21.4347C16.4663 21.1769 17.0565 20.8209 17.5406 20.387C18.0248 19.9532 18.3933 19.45 18.6253 18.9062C18.8573 18.3624 18.9482 17.7887 18.8927 17.2178C18.8373 16.6469 18.6365 16.09 18.3021 15.579L12.1961 6.23739C11.8621 5.7264 11.4009 5.27118 10.8389 4.89772C10.2769 4.52425 9.62501 4.23985 8.92054 4.06076C8.21607 3.88167 7.47278 3.81139 6.73311 3.85394C5.99344 3.89649 5.27188 4.05103 4.60962 4.30874C3.94735 4.56645 3.35737 4.92229 2.87333 5.35593C2.3893 5.78957 2.02071 6.29252 1.7886 6.83607C1.55648 7.37962 1.4654 7.95312 1.52054 8.52383C1.57569 9.09454 1.77598 9.65129 2.10999 10.1623L4.27181 13.4697L3.29591 13.8493L1.13409 10.5419C0.329676 9.31026 0.192188 7.88255 0.75185 6.57272C1.31151 5.26288 2.5225 4.17818 4.11851 3.55715C5.71453 2.93612 7.56488 2.82961 9.26265 3.26104C10.9604 3.69247 12.3666 4.62652 13.172 5.85777L19.2779 15.1994C20.0319 16.3531 20.2025 17.6821 19.7563 18.9275C19.3102 20.1729 18.2793 21.2456 16.8644 21.9368Z" fill="#52D3D8"/>
<path d="M16.4458 31.9037C16.2648 31.9917 16.077 32.0736 15.8825 32.1494C14.2858 32.769 12.4358 32.8746 10.7384 32.4431C9.04093 32.0116 7.63465 31.0781 6.82807 29.8476L0.722091 20.506C-0.0829539 19.2743 -0.220886 17.8463 0.338632 16.5362C0.898149 15.226 2.10929 14.141 3.70561 13.5199C5.30193 12.8987 7.15267 12.7923 8.85069 13.224C10.5487 13.6557 11.9549 14.5902 12.76 15.8219L14.364 18.2759L13.3881 18.6555L11.7841 16.2015C11.4501 15.6905 10.9889 15.2353 10.4269 14.8618C9.86484 14.4883 9.213 14.2039 8.50853 14.0248C7.80406 13.8457 7.06077 13.7755 6.3211 13.818C5.58143 13.8606 4.85986 14.0151 4.1976 14.2728C3.53534 14.5305 2.94535 14.8864 2.46132 15.32C1.97728 15.7537 1.60869 16.2566 1.37658 16.8002C1.14447 17.3437 1.05339 17.9172 1.10853 18.4879C1.16368 19.0586 1.36397 19.6154 1.69798 20.1264L7.80395 29.468C8.13771 29.9793 8.59877 30.4348 9.16079 30.8086C9.72281 31.1824 10.3748 31.4671 11.0794 31.6464C11.7841 31.8257 12.5276 31.8961 13.2676 31.8536C14.0075 31.8111 14.7293 31.6566 15.3918 31.3987C16.0543 31.1409 16.6445 30.785 17.1286 30.3511C17.6127 29.9173 17.9813 29.4141 18.2133 28.8703C18.4453 28.3265 18.5362 27.7528 18.4807 27.1819C18.4252 26.611 18.2245 26.0541 17.89 25.5431L15.7883 22.3276L16.7642 21.948L18.8659 25.1635C19.6184 26.3184 19.7875 27.6479 19.3402 28.8936C18.8929 30.1393 17.8613 31.2122 16.4458 31.9037Z" fill="#52D3D8"/>
<path d="M28.6906 8.15938C30.35 8.15938 31.7516 8.43594 32.8953 8.98906C34.0484 9.54219 35.0328 10.4422 35.8484 11.6891L34.3297 12.8141C33.7766 11.8391 33.0312 11.0984 32.0937 10.5922C31.1562 10.0766 30.1203 9.81875 28.9859 9.81875C27.5141 9.81875 26.3141 10.0906 25.3859 10.6344C24.4578 11.1781 23.9937 12.0125 23.9937 13.1375C23.9937 13.5781 24.0922 13.9813 24.2891 14.3469C24.4859 14.7125 24.7203 15.0125 24.9922 15.2469C25.2734 15.4813 25.6437 15.7109 26.1031 15.9359C26.5719 16.1609 26.9891 16.3344 27.3547 16.4563C27.7297 16.5781 28.1937 16.7281 28.7469 16.9063C29.3 17.0844 29.7266 17.2297 30.0266 17.3422C30.6547 17.5859 31.1703 17.7922 31.5734 17.9609C31.9766 18.1203 32.4219 18.3219 32.9094 18.5656C33.3969 18.8094 33.7906 19.0391 34.0906 19.2547C34.3906 19.4609 34.6953 19.7141 35.0047 20.0141C35.3141 20.3141 35.5484 20.6281 35.7078 20.9563C35.8766 21.2844 36.0125 21.6641 36.1156 22.0953C36.2281 22.5172 36.2844 22.9766 36.2844 23.4734C36.2844 25.3203 35.5906 26.7641 34.2031 27.8047C32.825 28.8359 30.9734 29.3516 28.6484 29.3516C27.9828 29.3516 27.3219 29.2953 26.6656 29.1828C26.0187 29.0703 25.3578 28.8781 24.6828 28.6063C24.0172 28.3344 23.4172 27.9922 22.8828 27.5797C22.3484 27.1672 21.875 26.6328 21.4625 25.9766C21.0594 25.3203 20.7828 24.5797 20.6328 23.7547L22.3625 23.0094C22.7844 24.5563 23.5203 25.7047 24.5703 26.4547C25.6297 27.2047 27.0312 27.5797 28.775 27.5797C29.3094 27.5797 29.8203 27.5422 30.3078 27.4672C30.7953 27.3828 31.2734 27.2422 31.7422 27.0453C32.2203 26.8484 32.6328 26.6047 32.9797 26.3141C33.3266 26.0141 33.6031 25.6297 33.8094 25.1609C34.025 24.6828 34.1328 24.1438 34.1328 23.5438C34.1328 23.1594 34.0812 22.8078 33.9781 22.4891C33.875 22.1703 33.7672 21.8984 33.6547 21.6734C33.5422 21.4391 33.3172 21.2 32.9797 20.9563C32.6422 20.7125 32.375 20.525 32.1781 20.3938C31.9812 20.2531 31.6016 20.0703 31.0391 19.8453C30.4766 19.6203 30.0547 19.4609 29.7734 19.3672C29.5016 19.2641 28.9859 19.0813 28.2266 18.8188C28.1047 18.7719 28.0109 18.7391 27.9453 18.7203C26.2766 18.1391 25.1141 17.6656 24.4578 17.3C22.9484 16.4656 22.0906 15.3688 21.8844 14.0094C21.8562 13.7844 21.8422 13.55 21.8422 13.3063C21.8422 12.4531 22.0344 11.6891 22.4187 11.0141C22.8031 10.3391 23.3187 9.8 23.9656 9.39688C24.6219 8.98438 25.3484 8.675 26.1453 8.46875C26.9516 8.2625 27.8 8.15938 28.6906 8.15938ZM39.1813 29V8.42656H42.1484L48.7156 23.3047L55.4656 8.44063H58.1516V29H56.2672V11.0703L49.5875 25.4844H47.6891L41.1359 10.9859V29H39.1813ZM74.8859 29H62.3281V8.4125H64.3812V27.4109H74.8859V29ZM78.9359 29H76.8828V8.4125H78.9359V29ZM83.1969 29V8.4125H85.4891L98.1875 25.8922V20.3656V8.4125H100.002V29H98.1453L85.0672 10.8594C85.0672 10.8594 85.0672 12.8047 85.0672 16.6953V29H83.1969ZM118.691 8.38438L111.448 15.9781L119.591 29H117.242L110 17.3563L106.231 21.2234V29H104.178V8.38438H106.231V18.7906L116.202 8.38438H118.691Z" fill="white"/>
</svg>
